<svg xmlns="http://www.w3.org/2000/svg"  viewBox="0 0 72 72" width="64px" height="64px"><path d="M 35.75 14 C 15.579 14 14 15.579 14 35.75 L 14 36.25 C 14 56.421 15.579 58 35.75 58 L 36.25 58 C 56.421 58 58 56.421 58 36.25 L 58 35.75 C 58 15.579 56.421 14 36.25 14 L 35.75 14 z M 30 22 L 42 22 C 49.419 22 50 22.581 50 30 L 50 42 C 50 49.419 49.419 50 42 50 L 30 50 C 22.581 50 22 49.419 22 42 L 22 30 C 22 22.581 22.581 22 30 22 z M 45.496094 25 C 44.668094 25.002 43.998 25.674906 44 26.503906 C 44.002 27.331906 44.674906 28.002 45.503906 28 C 46.331906 27.998 47.002 27.325094 47 26.496094 C 46.998 25.668094 46.325094 24.998 45.496094 25 z M 35.976562 26 C 30.454563 26.013 25.987 30.501437 26 36.023438 C 26.013 41.545437 30.501437 46.013 36.023438 46 C 41.545437 45.987 46.013 41.498562 46 35.976562 C 45.987 30.454563 41.498562 25.987 35.976562 26 z M 35.990234 32 C 38.199234 31.995 39.994 33.781234 40 35.990234 C 40.005 38.199234 38.218766 39.995 36.009766 40 C 33.800766 40.005 32.006 38.218766 32 36.009766 C 31.995 33.800766 33.781234 32.006 35.990234 32 z"/></svg>